<svg width="1087" height="783" viewBox="0 0 1087 783" fill="none" xmlns="http://www.w3.org/2000/svg">
<g clip-path="url(#clip0)">
<path opacity="0.1" d="M631.059 138.03C561.429 135.61 495.059 113.13 431.779 88.5402C368.499 63.9502 305.779 36.7002 237.779 23.6702C194.059 15.2802 144.059 14.1002 108.839 37.5402C74.9391 60.0902 63.9891 99.0202 58.0991 135.14C53.6691 162.32 51.0991 190.92 63.2091 216.37C71.6391 234.03 86.5991 248.88 96.9491 265.8C132.949 324.67 107.499 397.27 68.4791 454.8C50.1791 481.8 28.9491 507.49 14.8291 536.2C0.709102 564.91 -5.83089 597.8 6.52911 627.08C18.7791 656.08 47.9591 677.9 79.5791 693.23C143.799 724.34 219.469 733.24 293.259 738.34C456.599 749.51 620.819 744.67 784.589 739.83C845.199 738.03 906.079 736.22 965.699 726.83C998.809 721.62 1033 713.36 1057.04 693.42C1087.55 668.1 1095.12 625.24 1074.67 593.49C1040.37 540.25 945.539 527.02 921.559 469.88C908.369 438.43 921.919 403.39 941.099 374.22C982.229 311.65 1051.19 256.75 1054.82 185.22C1057.32 136.09 1024.17 86.9002 972.909 63.6502C919.189 39.2602 844.689 42.3402 805.059 82.6502C764.249 124.18 692.529 140.16 631.059 138.03Z" fill="#37761D"/>
<path d="M242.251 725.04C242.251 725.04 187.251 683.46 176.861 630.57C172.647 608.356 161.346 588.108 144.651 572.86C136.664 565.688 128.038 559.261 118.881 553.66" stroke="#535461" stroke-width="2" stroke-miterlimit="10"/>
<path d="M112.149 520.34C116.969 526.86 119.149 554.49 119.149 554.49C119.149 554.49 93.3794 544.34 88.5494 537.83C86.2301 534.7 85.249 530.777 85.8219 526.925C86.3948 523.072 88.4748 519.604 91.6044 517.285C94.734 514.965 98.6567 513.984 102.51 514.557C106.363 515.13 109.83 517.21 112.149 520.34V520.34Z" fill="#37761D"/>
<path d="M158.37 542.02C158.87 550.11 145.7 574.49 145.7 574.49C145.7 574.49 129.57 551.95 129.06 543.86C128.866 540.003 130.199 536.225 132.771 533.345C135.343 530.464 138.947 528.713 142.801 528.471C146.655 528.229 150.449 529.516 153.362 532.052C156.274 534.588 158.069 538.169 158.36 542.02H158.37Z" fill="#37761D"/>
<path d="M203.17 604.34C199.53 611.58 175.84 625.98 175.84 625.98C175.84 625.98 173.31 598.38 176.95 591.14C178.742 587.735 181.799 585.17 185.463 583.997C189.127 582.823 193.106 583.135 196.542 584.865C199.979 586.595 202.599 589.605 203.838 593.247C205.078 596.889 204.838 600.873 203.17 604.34V604.34Z" fill="#37761D"/>
<path d="M226.461 659.1C224.091 666.85 203.181 685.04 203.181 685.04C203.181 685.04 196.011 658.27 198.381 650.51C199.52 646.787 202.092 643.668 205.53 641.841C208.968 640.013 212.992 639.626 216.716 640.765C220.439 641.904 223.558 644.476 225.386 647.915C227.213 651.353 227.6 655.377 226.461 659.1V659.1Z" fill="#37761D"/>
<path d="M121.861 594.09C129.861 595.17 155.151 583.75 155.151 583.75C155.151 583.75 133.811 566.07 125.771 564.99C121.912 564.472 118.005 565.507 114.91 567.869C111.814 570.231 109.784 573.726 109.266 577.585C108.747 581.444 109.783 585.351 112.145 588.446C114.507 591.541 118.002 593.572 121.861 594.09V594.09Z" fill="#37761D"/>
<path d="M149.91 657.8C157.91 656.43 178.58 637.98 178.58 637.98C178.58 637.98 152.92 627.5 144.93 628.87C143.017 629.183 141.185 629.873 139.54 630.898C137.895 631.923 136.469 633.264 135.345 634.843C134.221 636.423 133.421 638.209 132.991 640.099C132.561 641.989 132.509 643.946 132.839 645.856C133.17 647.766 133.875 649.592 134.914 651.229C135.954 652.865 137.307 654.279 138.896 655.389C140.485 656.5 142.278 657.284 144.172 657.698C146.066 658.112 148.023 658.146 149.93 657.8H149.91Z" fill="#37761D"/>
<path d="M185.661 715.99C193.771 715.99 217.271 701.3 217.271 701.3C217.271 701.3 193.761 686.63 185.651 686.63C181.757 686.63 178.023 688.177 175.27 690.93C172.517 693.683 170.971 697.416 170.971 701.31C170.971 705.203 172.517 708.937 175.27 711.69C178.023 714.443 181.757 715.99 185.651 715.99H185.661Z" fill="#37761D"/>
<path d="M776.551 365.41C776.551 365.41 810.451 305.36 861.551 288.06C883.008 280.934 901.577 267.043 914.471 248.47C920.518 239.591 925.737 230.174 930.061 220.34" stroke="#535461" stroke-width="2" stroke-miterlimit="10"/>
<path d="M962.141 209.34C956.321 214.98 929.23 220.82 929.23 220.82C929.23 220.82 935.881 193.92 941.701 188.27C944.51 185.64 948.239 184.218 952.087 184.311C955.934 184.403 959.591 186.003 962.27 188.765C964.95 191.527 966.438 195.231 966.413 199.079C966.389 202.927 964.855 206.612 962.141 209.34Z" fill="#37761D"/>
<path d="M946.819 257.97C938.819 259.55 912.949 249.73 912.949 249.73C912.949 249.73 933.149 230.73 941.099 229.18C943.008 228.756 944.982 228.718 946.906 229.068C948.83 229.418 950.664 230.148 952.302 231.217C953.939 232.285 955.347 233.67 956.442 235.29C957.537 236.91 958.297 238.733 958.678 240.65C959.059 242.568 959.053 244.543 958.661 246.458C958.268 248.374 957.497 250.192 956.392 251.805C955.288 253.418 953.872 254.795 952.228 255.853C950.584 256.912 948.745 257.631 946.819 257.97V257.97Z" fill="#37761D"/>
<path d="M891.06 310.65C883.4 308 865.99 286.44 865.99 286.44C865.99 286.44 892.99 280.26 900.67 282.91C902.515 283.523 904.221 284.495 905.687 285.772C907.153 287.048 908.352 288.603 909.212 290.346C910.072 292.09 910.578 293.987 910.7 295.927C910.821 297.867 910.556 299.812 909.919 301.649C909.283 303.486 908.288 305.179 906.992 306.628C905.697 308.077 904.126 309.255 902.371 310.092C900.617 310.93 898.714 311.41 896.772 311.506C894.83 311.602 892.889 311.311 891.06 310.65V310.65Z" fill="#37761D"/>
<path d="M839.821 341.01C831.821 339.69 811.061 321.34 811.061 321.34C811.061 321.34 836.651 310.68 844.641 312C848.486 312.632 851.923 314.767 854.195 317.933C856.467 321.1 857.388 325.039 856.756 328.885C856.123 332.731 853.989 336.167 850.822 338.439C847.656 340.711 843.716 341.632 839.871 341L839.821 341.01Z" fill="#37761D"/>
<path d="M890.359 228.7C890.349 236.81 905.059 260.34 905.059 260.34C905.059 260.34 919.749 236.84 919.749 228.74C919.801 226.78 919.459 224.831 918.744 223.006C918.03 221.18 916.957 219.517 915.589 218.113C914.222 216.709 912.587 215.593 910.781 214.831C908.975 214.069 907.034 213.677 905.074 213.677C903.114 213.677 901.174 214.069 899.368 214.831C897.562 215.593 895.927 216.709 894.56 218.113C893.192 219.517 892.119 221.18 891.404 223.006C890.69 224.831 890.348 226.78 890.399 228.74L890.359 228.7Z" fill="#37761D"/>
<path d="M830.929 264.96C833.349 272.7 854.389 290.75 854.389 290.75C854.389 290.75 861.389 263.93 858.949 256.19C857.684 252.604 855.076 249.649 851.676 247.947C848.275 246.245 844.347 245.929 840.718 247.066C837.089 248.202 834.043 250.703 832.221 254.04C830.399 257.378 829.943 261.293 830.949 264.96H830.929Z" fill="#37761D"/>
<path d="M778.061 308.13C779.141 316.13 796.821 337.5 796.821 337.5C796.821 337.5 808.231 312.25 807.151 304.22C806.936 302.274 806.335 300.391 805.383 298.681C804.43 296.971 803.145 295.469 801.603 294.263C800.061 293.057 798.294 292.172 796.405 291.659C794.516 291.146 792.543 291.017 790.603 291.277C788.663 291.538 786.795 292.184 785.109 293.178C783.422 294.171 781.951 295.492 780.783 297.062C779.614 298.632 778.771 300.42 778.304 302.321C777.836 304.221 777.754 306.196 778.061 308.13V308.13Z" fill="#37761D"/>
<path opacity="0.25" d="M962.141 209.34C956.321 214.98 929.23 220.82 929.23 220.82C929.23 220.82 935.881 193.92 941.701 188.27C944.51 185.64 948.239 184.218 952.087 184.311C955.934 184.403 959.591 186.003 962.27 188.765C964.95 191.527 966.438 195.231 966.413 199.079C966.389 202.927 964.855 206.612 962.141 209.34Z" fill="black"/>
<path opacity="0.25" d="M946.819 257.97C938.819 259.55 912.949 249.73 912.949 249.73C912.949 249.73 933.149 230.73 941.099 229.18C943.008 228.756 944.982 228.718 946.906 229.068C948.83 229.418 950.664 230.148 952.302 231.217C953.939 232.285 955.347 233.67 956.442 235.29C957.537 236.91 958.297 238.733 958.678 240.65C959.059 242.568 959.053 244.543 958.661 246.458C958.268 248.374 957.497 250.192 956.392 251.805C955.288 253.418 953.872 254.795 952.228 255.853C950.584 256.912 948.745 257.631 946.819 257.97V257.97Z" fill="black"/>
<path opacity="0.25" d="M891.06 310.65C883.4 308 865.99 286.44 865.99 286.44C865.99 286.44 892.99 280.26 900.67 282.91C902.515 283.523 904.221 284.495 905.687 285.772C907.153 287.048 908.352 288.603 909.212 290.346C910.072 292.09 910.578 293.987 910.7 295.927C910.821 297.867 910.556 299.812 909.919 301.649C909.283 303.486 908.288 305.179 906.992 306.628C905.697 308.077 904.126 309.255 902.371 310.092C900.617 310.93 898.714 311.41 896.772 311.506C894.83 311.602 892.889 311.311 891.06 310.65V310.65Z" fill="black"/>
<path opacity="0.25" d="M839.821 341.01C831.821 339.69 811.061 321.34 811.061 321.34C811.061 321.34 836.651 310.68 844.641 312C848.486 312.632 851.923 314.767 854.195 317.933C856.467 321.1 857.388 325.039 856.756 328.885C856.123 332.731 853.989 336.167 850.822 338.439C847.656 340.711 843.716 341.632 839.871 341L839.821 341.01Z" fill="black"/>
<path opacity="0.25" d="M890.359 228.7C890.349 236.81 905.059 260.34 905.059 260.34C905.059 260.34 919.749 236.84 919.749 228.74C919.801 226.78 919.459 224.831 918.744 223.006C918.03 221.18 916.957 219.517 915.589 218.113C914.222 216.709 912.587 215.593 910.781 214.831C908.975 214.069 907.034 213.677 905.074 213.677C903.114 213.677 901.174 214.069 899.368 214.831C897.562 215.593 895.927 216.709 894.56 218.113C893.192 219.517 892.119 221.18 891.404 223.006C890.69 224.831 890.348 226.78 890.399 228.74L890.359 228.7Z" fill="black"/>
<path opacity="0.25" d="M830.929 264.96C833.349 272.7 854.389 290.75 854.389 290.75C854.389 290.75 861.389 263.93 858.949 256.19C857.684 252.604 855.076 249.649 851.676 247.947C848.275 246.245 844.347 245.929 840.718 247.066C837.089 248.202 834.043 250.703 832.221 254.04C830.399 257.378 829.943 261.293 830.949 264.96H830.929Z" fill="black"/>
<path opacity="0.25" d="M778.061 308.13C779.141 316.13 796.821 337.5 796.821 337.5C796.821 337.5 808.231 312.25 807.151 304.22C806.936 302.274 806.335 300.391 805.383 298.681C804.43 296.971 803.145 295.469 801.603 294.263C800.061 293.057 798.294 292.172 796.405 291.659C794.516 291.146 792.543 291.017 790.603 291.277C788.663 291.538 786.795 292.184 785.109 293.178C783.422 294.171 781.951 295.492 780.783 297.062C779.614 298.632 778.771 300.42 778.304 302.321C777.836 304.221 777.754 306.196 778.061 308.13V308.13Z" fill="black"/>
<path d="M778.5 364.22C778.5 364.22 785.16 295.58 824.82 259.08C841.548 243.869 852.895 223.645 857.16 201.44C859.101 190.885 860.068 180.173 860.05 169.44" stroke="#535461" stroke-width="2" stroke-miterlimit="10"/>
<path d="M884.91 146.28C881.91 153.8 859.47 170.12 859.47 170.12C859.47 170.12 854.65 142.83 857.68 135.31C859.139 131.699 861.972 128.815 865.557 127.294C869.142 125.772 873.184 125.736 876.795 127.195C880.406 128.654 883.289 131.487 884.811 135.072C886.333 138.657 886.369 142.699 884.91 146.31V146.28Z" fill="#37761D"/>
<path d="M890.62 197C883.99 201.66 856.32 203.19 856.32 203.19C856.32 203.19 867.1 177.65 873.73 172.99C875.303 171.813 877.095 170.964 879.002 170.492C880.908 170.02 882.89 169.936 884.829 170.244C886.769 170.552 888.627 171.247 890.294 172.286C891.96 173.325 893.401 174.688 894.532 176.294C895.662 177.9 896.458 179.717 896.874 181.636C897.29 183.555 897.316 185.539 896.951 187.469C896.586 189.398 895.838 191.235 894.751 192.871C893.663 194.506 892.259 195.907 890.62 196.99V197Z" fill="#37761D"/>
<path d="M860.961 267.78C852.881 268.46 828.221 255.78 828.221 255.78C828.221 255.78 850.421 239.18 858.501 238.5C862.381 238.174 866.232 239.402 869.206 241.915C872.18 244.428 874.035 248.02 874.361 251.9C874.687 255.78 873.458 259.631 870.945 262.605C868.432 265.579 864.841 267.434 860.961 267.76V267.78Z" fill="#37761D"/>
<path d="M826.45 316.27C818.6 318.27 792.16 310 792.16 310C792.16 310 811.23 289.89 819.08 287.85C822.849 286.873 826.851 287.432 830.207 289.406C833.563 291.38 835.998 294.606 836.975 298.375C837.952 302.144 837.393 306.146 835.419 309.502C833.445 312.858 830.219 315.293 826.45 316.27V316.27Z" fill="#37761D"/>
<path d="M827.15 193.12C830.43 200.53 853.37 216.12 853.37 216.12C853.37 216.12 857.27 188.68 853.99 181.27C852.355 177.803 849.43 175.113 845.838 173.774C842.247 172.435 838.274 172.554 834.77 174.106C831.265 175.657 828.506 178.518 827.082 182.076C825.658 185.635 825.682 189.609 827.15 193.15V193.12Z" fill="#37761D"/>
<path d="M787.51 250.34C792.86 256.43 819.4 264.41 819.4 264.41C819.4 264.41 814.92 237.06 809.57 230.97C808.307 229.49 806.763 228.277 805.027 227.399C803.291 226.522 801.398 225.998 799.458 225.858C797.518 225.719 795.57 225.966 793.726 226.586C791.882 227.206 790.18 228.186 788.719 229.469C787.257 230.753 786.065 232.314 785.212 234.062C784.359 235.81 783.862 237.71 783.749 239.652C783.637 241.594 783.911 243.538 784.557 245.373C785.203 247.208 786.207 248.896 787.51 250.34V250.34Z" fill="#37761D"/>
<path d="M756.621 311.26C760.861 318.16 785.671 330.51 785.671 330.51C785.671 330.51 785.881 302.8 781.671 295.89C779.575 292.7 776.319 290.451 772.593 289.621C768.867 288.791 764.964 289.445 761.712 291.444C758.46 293.443 756.115 296.631 755.174 300.33C754.233 304.029 754.77 307.95 756.671 311.26H756.621Z" fill="#37761D"/>
<path d="M727.5 95.4103C729.16 89.3203 731.16 83.2003 732.56 77.0303C730.88 83.2003 728.87 89.3403 727.5 95.4103Z" fill="url(#paint0_linear)"/>
<path d="M720.061 154.07C719.921 153.83 719.821 153.59 719.711 153.37C719.711 153.27 719.611 153.19 719.571 153.09C719.353 153.193 719.129 153.283 718.901 153.36C718.461 153.53 718.011 153.69 717.551 153.82C717.091 153.95 716.901 154.02 716.551 154.1C716.261 154.2 715.963 154.277 715.661 154.33L715.741 154.51C716.111 154.43 716.471 154.36 716.841 154.26L716.941 155.5C717.361 155.5 717.751 155.44 718.131 155.44C718.311 155.43 718.491 155.43 718.671 155.44C719.451 155.44 720.131 155.44 720.671 155.44C720.461 154.99 720.241 154.52 720.061 154.07ZM923.061 477.2C918.361 470.87 908.981 402.93 908.981 402.93C908.981 402.93 890.531 354.62 895.561 335.34C900.591 316.06 881.821 266.73 881.821 266.73C881.821 266.73 869.421 261.34 868.751 253.34C868.751 253.34 818.121 237.34 815.751 225.34C813.831 215.5 782.431 208.44 771.151 206.21C767.711 192.33 764.251 179.38 761.701 172.31C761.011 170.11 760.361 168.21 759.761 166.71C755.451 155.71 742.131 154.71 732.471 155.59C732.052 153.715 731.275 151.939 730.181 150.36C730.021 149.817 729.705 149.333 729.271 148.97C729.063 148.793 728.843 148.633 728.611 148.49C728.436 148.166 728.206 147.875 727.931 147.63C727.656 147.383 727.354 147.168 727.031 146.99C726.798 146.864 726.558 146.754 726.311 146.66C725.731 146.439 725.132 146.275 724.521 146.17C723.809 146.023 723.087 145.93 722.361 145.89C724.126 145.118 725.699 143.967 726.971 142.52C727.836 141.504 728.479 140.319 728.861 139.04C729.178 137.977 729.319 136.869 729.281 135.76C729.021 136.217 728.72 136.649 728.381 137.05C728.801 132.62 726.461 128.12 725.121 123.71C723.497 117.969 723.196 111.934 724.241 106.06C725.581 97.1999 728.901 88.2399 731.151 79.2199C731.157 79.1701 731.157 79.1197 731.151 79.0699C732.331 74.5904 733.061 70.0044 733.331 65.3799C733.721 56.0499 731.331 46.7399 727.491 38.2399C724.081 30.7099 719.051 23.2999 711.351 20.2399C705.631 17.9299 699.221 18.2999 693.061 17.9199C679.241 17.0599 666.061 12.1999 652.921 7.7799C639.781 3.3599 626.261 -0.660102 612.431 0.109898C598.601 0.879898 584.371 7.54989 578.061 19.7899C576.061 23.6099 574.911 27.8599 572.521 31.4499C568.041 38.2199 560.021 41.6099 553.331 46.2799C546.641 50.9499 540.751 57.5799 538.331 65.4899C537.009 69.7515 536.823 74.2843 537.791 78.6399V78.6399C538.008 79.6235 538.289 80.5922 538.631 81.5399C539.58 84.1822 541.06 86.6019 542.981 88.6499C544.429 90.1635 546.094 91.4542 547.921 92.4799V92.4799C550.215 93.7516 552.67 94.7069 555.221 95.3199C555.131 95.6199 555.041 95.9399 554.941 96.2499C554.781 96.7599 554.641 97.2499 554.491 97.7999C554.161 99.0299 553.851 100.28 553.591 101.54C553.58 101.63 553.58 101.72 553.591 101.81C552.363 107.498 551.746 113.301 551.751 119.12C551.749 121.872 551.889 124.622 552.171 127.36V127.36C556.171 167.94 589.671 199.95 631.061 202.03C632.481 202.1 633.911 202.14 635.361 202.14C636.021 202.14 636.671 202.14 637.361 202.14C638.011 203 638.651 203.88 639.261 204.74C639.871 205.6 640.431 206.48 640.961 207.34L639.511 205.84L638.061 204.51C637.668 205.049 637.229 205.555 636.751 206.02C635.805 205.687 634.84 205.413 633.861 205.2V205.2C629.711 204.28 623.391 203.94 615.071 206.45C607.421 208.74 598.071 213.45 587.131 222.4L533.821 254.4L504.981 271.94L494.591 297.34C494.591 297.34 486.781 327.52 478.091 362.1C477.751 362.2 477.421 362.3 477.091 362.42C476.387 362.34 475.679 362.3 474.971 362.3C469.929 362.288 465.079 364.231 461.439 367.72C457.799 371.208 455.653 375.972 455.451 381.01C438.171 402.01 437.191 423.01 441.251 432.65C441.618 433.553 442.081 434.415 442.631 435.22C445.291 439.06 450.261 448.96 455.301 459.51C455.171 460.38 455.091 461.11 455.051 461.66C455.042 461.84 455.042 462.02 455.051 462.2C455.051 462.2 458.051 507.51 448.051 520.5C445.861 523.33 446.191 527.05 448.051 531.17C454.751 545.99 481.241 565.78 481.241 565.78C481.241 565.78 513.011 565.61 530.711 563.68C530.661 565.46 530.621 567.23 530.581 568.96C530.181 586.44 530.181 601.09 530.181 601.09L529.521 619.42C529.521 619.42 523.521 658.05 520.521 668.7C518.631 675.38 520.811 737.23 522.711 782.7H835.731C839.411 755.8 834.221 674.07 834.221 674.07C834.221 674.07 829.291 652.94 829.111 634.52C829.101 634.5 829.096 634.477 829.096 634.455C829.096 634.432 829.101 634.41 829.111 634.39C829.111 632.78 829.111 631.21 829.171 629.67L831.441 629.59L835.521 629.45H835.891C835.891 629.45 835.991 629.07 836.221 628.45C836.761 626.905 837.497 625.437 838.411 624.08C840.151 621.51 842.871 618.99 846.961 618.82C849.221 618.73 852.721 616.9 856.671 614.2C856.697 614.206 856.724 614.206 856.751 614.2C867.381 607.01 881.431 593.74 884.841 591.56C889.531 588.56 911.991 568.56 911.991 568.56C911.991 568.56 915.341 564.32 918.911 559.21L919.041 559.03C923.481 552.63 928.201 544.98 927.041 542.57C925.041 538.25 928.381 527.92 928.381 527.92C938.811 508.83 927.761 483.53 923.061 477.2ZM729.691 169.62C729.787 169.918 729.847 170.227 729.871 170.54C729.621 170.21 729.371 169.86 729.121 169.54L728.881 169.22L728.711 168.98L729.091 168.46C729.091 168.46 729.091 168.46 729.091 168.53C729.355 168.854 729.558 169.223 729.691 169.62V169.62ZM726.331 160.76C725.241 160.98 724.381 161.18 723.821 161.33C723.111 160.07 722.431 158.81 721.821 157.53C723.424 158.46 724.934 159.542 726.331 160.76V160.76ZM724.451 162.34C724.448 162.32 724.448 162.3 724.451 162.28L724.531 162.34C724.941 162.61 725.341 162.87 725.711 163.14C726.041 163.38 726.341 163.61 726.641 163.85C726.441 164.2 726.221 164.56 726.001 164.85C725.651 164.3 725.321 163.77 725.001 163.22C724.801 163 724.621 162.7 724.451 162.34ZM718.451 150C720.383 149.809 722.329 149.809 724.261 150V150C724.531 150 724.771 150.05 725.011 150.09C725.553 150.174 726.086 150.311 726.601 150.5C727.783 152.153 728.51 154.088 728.711 156.11L728.171 156.19L727.641 156.29C726.641 156.46 725.641 156.63 724.861 156.79L723.861 157C722.531 157.29 721.761 157.51 721.731 157.52C721.601 157.25 721.471 157 721.331 156.74C721.111 156.31 720.881 155.87 720.681 155.44C720.481 155.01 720.221 154.52 720.011 154.07C719.871 153.83 719.771 153.59 719.661 153.37C719.661 153.27 719.561 153.19 719.521 153.09C719.463 152.984 719.412 152.874 719.371 152.76C718.761 151.52 718.201 150.28 717.661 149.06C717.601 148.94 717.551 148.81 717.501 148.69L718.261 148.64V148.9L718.451 150ZM479.861 770.34C479.781 755.45 478.701 739.34 475.701 724.22C474.421 717.79 473.101 711.36 471.761 705.04C471.421 703.46 471.091 701.9 470.761 700.34L467.681 700.75H467.401C459.001 661.14 450.221 626.24 450.221 626.24C450.221 626.24 432.781 559.65 434.801 554.34C435.061 553.65 434.731 551.79 433.991 549.06C429.771 533.92 412.151 492.2 405.991 477.94C405.991 477.88 405.941 477.81 405.921 477.76C404.921 475.37 404.201 473.76 403.981 473.29L405.431 452.01L405.511 450.73L405.701 448.01L405.621 447.94L405.701 446.68C405.701 446.68 390.481 434.2 364.701 425.19C363.701 424.83 362.641 424.48 361.591 424.14C362.881 415.53 364.591 405.81 366.821 396.34C367.031 395.39 367.261 394.47 367.501 393.54C367.711 392.61 367.951 391.71 368.191 390.8C368.571 389.32 368.981 387.86 369.401 386.42C370.791 385.98 372.161 385.49 373.511 384.97L374.031 384.77C390.662 378.299 404.384 366.02 412.658 350.209C420.932 334.397 423.196 316.123 419.031 298.77V298.77C416.656 288.928 412.271 279.685 406.151 271.62C405.691 271 405.201 270.38 404.711 269.77C404.221 269.16 403.631 268.48 403.081 267.86C405.971 261.29 409.381 255.04 409.661 248.65C409.711 247.841 409.711 247.029 409.661 246.22V246.12C409.291 242.01 407.471 237.85 403.231 233.48C397.041 227.07 388.231 223.82 379.421 222.26C370.611 220.7 361.631 220.66 352.771 219.61C338.081 217.85 323.771 213.32 309.081 211.93C290.987 210.254 272.77 213.358 256.251 220.93C245.321 225.93 234.251 234.67 233.591 246.66C233.051 256.57 239.951 266.07 238.211 275.86C236.481 285.48 226.681 293.05 227.541 302.78C227.871 306.58 229.821 309.98 232.261 313.01C233.101 314.01 233.991 315.01 234.911 316.01C238.471 319.78 242.391 323.4 244.381 328.15C244.461 328.35 244.541 328.55 244.611 328.75C246.301 333.44 245.541 339.37 241.361 342.06C241.384 342.078 241.401 342.102 241.411 342.13V342.13C241.471 342.21 241.531 342.27 241.581 342.35C241.587 342.334 241.587 342.316 241.581 342.3C243.063 344.057 245.061 345.303 247.291 345.86L248.141 346.12C247.451 346.87 246.801 347.65 246.141 348.47L245.711 349.04C244.609 350.522 243.607 352.075 242.711 353.69C242.201 354.59 241.711 355.49 241.301 356.39C239.93 359.133 238.938 362.05 238.351 365.06C237.281 371.68 238.791 378.58 237.171 385.06C235.171 393.06 228.841 399.2 225.271 406.63C218.511 420.63 222.341 437.06 223.701 452.52C225.551 473.52 222.551 494.61 219.561 515.47C217.974 526.563 216.387 537.667 214.801 548.78C210.801 576.673 206.801 604.567 202.801 632.46C201.341 642.68 199.611 653.46 192.801 661.35H192.871C192.871 661.35 192.871 661.41 192.801 661.43C194.845 662.323 197.019 662.884 199.241 663.09V663.09C208.131 663.98 217.551 659.68 225.551 654.98C231.886 651.319 237.886 647.106 243.481 642.39C242.661 645.39 241.781 648.66 240.841 652.18C240.844 652.213 240.844 652.247 240.841 652.28V652.28C229.551 695.28 211.391 774.11 211.391 774.11C211.391 774.11 209.741 777.54 207.601 782.65H489.601C486.301 778.65 483.231 774.82 480.831 771.73L479.861 770.34ZM271.061 372.74C271.131 372.62 271.181 372.51 271.251 372.4C271.251 372.72 271.251 373.03 271.251 373.33C271.251 373.63 271.251 373.9 271.251 374.18C271.251 374.46 271.251 374.43 271.251 374.57C271.251 374.71 271.251 374.57 271.251 374.57C271.251 374.98 271.161 375.39 271.091 375.8C271.091 375.8 271.091 375.85 271.091 375.89L272.091 376.26L273.251 376.74C280.104 379.447 287.044 381.897 294.071 384.09C294.791 384.32 295.521 384.54 296.251 384.75L296.401 385.99C296.581 387.26 296.751 388.55 296.911 389.84C296.911 389.84 296.911 389.9 296.911 389.94C297.361 393.51 297.801 397.07 298.191 400.55C298.191 400.55 279.831 393.55 280.061 404.18C280.05 404.37 280.05 404.56 280.061 404.75C280.04 405.003 280.04 405.257 280.061 405.51C280.231 413.79 282.821 418.7 283.341 421.22C283.31 421.324 283.255 421.42 283.181 421.5C282.737 422.465 282.584 423.539 282.741 424.59C282.723 426.379 282.864 428.166 283.161 429.93C282.621 430.26 282.091 430.59 281.561 430.93C281.161 431.18 280.781 431.46 280.391 431.74C277.938 423.23 274.728 414.957 270.801 407.02C268.051 401.36 264.961 395.46 264.991 389.25C264.991 388.85 264.991 388.44 265.041 388.03C265.152 386.23 265.495 384.452 266.061 382.74C266.291 382.09 266.541 381.45 266.821 380.82C267.474 379.323 268.205 377.861 269.011 376.44C269.531 375.5 270.081 374.57 270.611 373.63C270.781 373.35 270.941 373.06 271.101 372.78L271.061 372.74ZM720.061 154.07C719.921 153.83 719.821 153.59 719.711 153.37C719.711 153.27 719.611 153.19 719.571 153.09C719.353 153.193 719.129 153.283 718.901 153.36C718.461 153.53 718.011 153.69 717.551 153.82C717.091 153.95 716.901 154.02 716.551 154.1L715.661 154.33L715.741 154.51C716.111 154.43 716.471 154.36 716.841 154.26L716.941 155.5C717.361 155.5 717.751 155.44 718.131 155.44H718.671C719.451 155.44 720.131 155.44 720.671 155.44C720.461 154.99 720.241 154.52 720.061 154.07Z" fill="url(#paint1_linear)"/>
<path d="M501.559 300.95L495.559 303.6C495.559 303.6 456.449 455.54 456.449 467.82C456.449 480.1 539.379 548.43 539.379 548.43L552.319 461.09C552.319 461.09 533.739 260.8 501.559 300.95Z" fill="#E8F5FF"/>
<path d="M683.47 252.62L648.82 234.54C646.879 226.266 643.435 218.419 638.66 211.39C633.59 204.07 626.85 196.88 618.45 193.13C597.22 183.61 708.25 133.64 708.25 133.64C709.999 139.642 712.058 145.55 714.42 151.34C720.14 165.46 729.63 183.72 741.86 188.92C762.65 197.77 683.47 252.62 683.47 252.62Z" fill="#FFC1C7"/>
<path opacity="0.1" d="M714.42 151.34C709.676 168.025 699.81 182.798 686.216 193.573C672.623 204.348 655.987 210.58 638.66 211.39C633.59 204.07 626.85 196.88 618.45 193.13C597.22 183.61 708.25 133.64 708.25 133.64C709.999 139.642 712.058 145.55 714.42 151.34V151.34Z" fill="black"/>
<path d="M717.54 126.11C717.544 142.474 712.695 158.471 703.607 172.079C694.518 185.687 681.598 196.294 666.481 202.558C651.364 208.822 634.729 210.463 618.679 207.272C602.629 204.082 587.886 196.203 576.315 184.633C564.743 173.063 556.863 158.321 553.67 142.271C550.477 126.222 552.116 109.587 558.379 94.4686C564.641 79.3507 575.246 66.4295 588.853 57.3393C602.46 48.2492 618.456 43.3983 634.82 43.4003C645.696 43.35 656.475 45.4549 666.533 49.5936C676.591 53.7322 685.729 59.8225 693.421 67.5127C701.112 75.203 707.203 84.3408 711.343 94.3984C715.483 104.456 717.589 115.234 717.54 126.11V126.11Z" fill="#FFC1C7"/>
<path d="M729.48 242L706.92 294.64L687.02 329.58H623.32L604.74 281.81L612.27 232.27H660.92L692.33 230.5L702.94 226.96L709.78 230.84L729.48 242Z" fill="#575A89"/>
<path opacity="0.1" d="M721.709 171.83C721.709 171.83 735.779 174.83 723.179 185.16C710.579 195.49 667.109 228.34 667.109 228.34C667.109 228.34 682.379 241.94 679.219 257.87L729.809 229.67L738.809 184.55C738.809 184.55 739.819 170.99 721.709 171.83Z" fill="black"/>
<path opacity="0.1" d="M677.06 228.34L644.88 233.65C644.88 233.65 651.52 258.2 648.2 265.17C648.1 265.386 648.016 265.61 647.95 265.84L634.82 301.33L644.66 329.2L678.72 282.75L667.11 265.17C667.11 265.17 679.38 248.91 686.68 243.27C693.98 237.63 677.06 228.34 677.06 228.34Z" fill="black"/>
<path d="M677.06 226.97L644.88 232.27C644.88 232.27 651.52 256.82 648.2 263.79C648.1 264.006 648.016 264.23 647.95 264.46L634.82 299.95L644.66 327.82L678.72 281.34L667.11 263.76C667.11 263.76 679.38 247.5 686.68 241.86C693.98 236.22 677.06 226.97 677.06 226.97Z" fill="#DCE6F2"/>
<path d="M723.059 169.18C723.059 169.18 737.129 172.18 724.519 182.51C711.909 192.84 667.109 228.34 667.109 228.34C667.109 228.34 683.699 239.29 680.549 255.21L731.139 227.02L740.139 181.9C740.139 181.9 741.139 168.34 723.059 169.18Z" fill="#575A89"/>
<path opacity="0.1" d="M640.87 214.52C640.87 214.52 643.94 220.26 657.49 230.61C657.49 230.61 634.93 242.61 643.56 259.48L609.05 250.48L603.74 233.89L640.87 214.52Z" fill="black"/>
<path d="M639.54 213.2C639.54 213.2 642.61 218.94 656.16 229.29C656.16 229.29 633.6 241.23 642.23 258.15L607.73 249.15L602.42 232.57L639.54 213.2Z" fill="#575A89"/>
<path opacity="0.1" d="M729.48 242L706.92 294.64L687.06 329.58H623.32L604.74 281.81L612.26 232.27H625.79C625.57 243.83 629.79 257.41 629.52 262.46C629.06 270.76 641.9 315.54 641.9 315.54C641.9 315.54 668.77 272.08 679.38 268.21C686.05 265.78 700.18 245.56 709.77 230.84L729.48 242Z" fill="black"/>
<path d="M818.351 519.01L816.061 521.89C816.061 521.89 832.651 605.16 828.061 624.07C827.281 627.479 826.835 630.955 826.731 634.45V634.6C825.921 653.84 831.731 678.81 831.731 678.81C831.731 678.81 836.371 752.41 833.731 782.68H523.111C521.291 737.92 519.331 679.93 521.111 673.5C524.111 662.89 530.111 624.4 530.111 624.4L530.771 606.16C530.771 606.16 530.771 588.53 531.311 568.89C531.541 560.06 531.881 550.79 532.371 542.57C533.001 532.23 533.881 523.52 535.091 519.24C535.836 515.996 536.265 512.687 536.371 509.36C536.371 509.05 536.371 508.73 536.431 508.41C536.431 507.41 536.531 506.33 536.571 505.22C536.571 504.91 536.571 504.6 536.571 504.22C536.761 497.78 536.691 490.14 536.481 482.22C536.481 481.79 536.481 481.35 536.481 480.91C536.311 474.97 536.061 468.91 535.781 463.15C534.911 445.15 533.781 429.93 533.781 429.93L495.631 303.53L505.911 278.21L534.441 260.73L587.191 228.88C612.921 207.73 629.861 210.27 636.321 212.59C636.948 212.804 637.563 213.055 638.161 213.34C638.361 213.44 638.521 213.52 638.671 213.61C638.876 213.708 639.074 213.821 639.261 213.95V213.95C637.492 214.801 635.955 216.067 634.781 217.64C633.458 219.431 632.515 221.472 632.011 223.64C631.673 224.984 631.436 226.351 631.301 227.73C631.171 229.18 631.121 230.68 631.121 232.19C631.192 235.502 631.476 238.805 631.971 242.08C631.971 242.14 631.971 242.22 631.971 242.3C632.301 244.64 632.711 246.93 633.111 249.08C633.106 249.117 633.106 249.154 633.111 249.19C633.571 251.7 634.031 254.02 634.341 256.02C634.401 256.38 634.451 256.71 634.501 257.02C634.721 258.342 634.825 259.681 634.811 261.02C634.923 264.256 635.359 267.472 636.111 270.62C636.371 271.94 636.671 273.35 637.001 274.82C637.451 276.82 637.941 279 638.471 281.22C638.761 282.44 639.071 283.7 639.391 284.95C639.511 285.45 639.641 285.95 639.761 286.46L639.961 287.25C642.091 295.72 644.401 304.15 645.821 309.25C646.661 312.25 647.191 314.1 647.191 314.1C647.191 314.1 662.251 289.75 674.271 275.89C674.451 275.69 674.611 275.5 674.781 275.32C675.971 273.95 677.141 272.7 678.261 271.6C680.711 269.16 682.911 267.42 684.681 266.78C685.058 266.642 685.423 266.471 685.771 266.27C690.691 263.48 698.631 253.35 706.061 242.74C706.791 241.74 707.501 240.65 708.221 239.62C709.871 237.24 711.471 234.85 712.981 232.56C714.141 230.81 715.251 229.11 716.301 227.49C721.301 219.71 724.821 213.91 724.821 213.91L731.761 213.6L732.971 213.54H733.781L765.291 212.08C765.291 212.08 766.651 212.31 768.891 212.76C769.011 212.76 769.131 212.76 769.261 212.84C780.441 215.06 811.501 222.09 813.401 231.84C815.721 243.78 865.821 259.71 865.821 259.71C866.481 267.71 878.751 272.98 878.751 272.98C878.751 272.98 897.331 322.08 892.361 341.32C887.451 360.32 905.141 407.32 905.611 408.64L902.221 412.92L818.351 519.01Z" fill="#E8F5FF"/>
<path opacity="0.1" d="M721.7 168.34C721.7 168.34 752.37 159.64 759.34 177.55C766.31 195.46 781.9 267.79 781.9 267.79C781.9 267.79 741.42 275.42 730.81 267.79C724.586 263.262 716.883 261.248 709.24 262.15L686.35 277.74L679.59 275.74C679.59 275.74 716.21 221.3 724.17 202.8C732.13 184.3 734.82 176.03 721.7 168.34Z" fill="black"/>
<path d="M720.371 164.34C720.371 164.34 751.061 155.64 758.061 173.55C765.061 191.46 780.621 263.79 780.621 263.79C780.621 263.79 740.151 271.42 729.531 263.79C723.311 259.262 715.611 257.247 707.971 258.15L685.061 273.74L678.301 271.74C678.301 271.74 714.921 217.3 722.881 198.8C730.841 180.3 733.491 172.05 720.371 164.34Z" fill="#E8F5FF"/>
<path opacity="0.1" d="M514.5 452.89C514.5 452.89 537.39 458.53 541.71 471.47C546.03 484.41 524.79 484.74 524.79 484.74C524.79 484.74 511.85 461.85 514.5 452.89Z" fill="black"/>
<path opacity="0.1" d="M599.76 548.43C599.76 548.43 543.7 663.22 556.64 674.17C569.58 685.12 599.76 548.43 599.76 548.43Z" fill="black"/>
<path opacity="0.1" d="M677.061 463.84C677.061 463.84 721.851 575.34 712.891 592.56C703.931 609.78 732.131 592.56 732.131 592.56L677.061 463.84Z" fill="black"/>
<path d="M739.429 573.98C739.429 573.98 588.149 581.28 632.279 628.39C676.409 675.5 766.969 630.39 766.969 630.39L739.429 573.98Z" fill="#FFC1C7"/>
<path opacity="0.1" d="M717.54 126.11C717.553 136.96 715.423 147.706 711.27 157.73C709.88 157.89 708.49 157.99 707.15 158.05C705.15 153.66 706.22 148.59 706.26 143.76C706.3 138.93 704.52 133.25 699.87 131.95C690.6 129.34 684.2 146.67 675.06 143.54C668.06 141.16 669.89 130.54 665.86 124.41C662.67 119.56 656.28 118.19 651.31 115.15C640.74 108.66 641.06 98.2801 636.15 88.4601C631.01 78.1701 620.15 81.2101 610.72 87.2801C603.56 91.9001 597.38 98.0901 589.72 101.77C583.09 104.97 575.64 106.13 568.29 106.3C563.765 106.475 559.238 105.997 554.85 104.88C560.011 85.474 572.056 68.6078 588.736 57.4268C605.416 46.2458 625.593 41.5133 645.505 44.1118C665.417 46.7104 683.704 56.4626 696.957 71.5498C710.209 86.637 717.521 106.029 717.53 126.11H717.54Z" fill="black"/>
<path d="M610.75 84.6296C603.58 89.2496 597.41 95.4296 589.75 99.1296C583.12 102.32 575.67 103.48 568.32 103.65C559.32 103.85 549.63 102.27 543.48 95.7696C537.83 89.7696 536.48 80.5396 538.87 72.6696C541.26 64.7996 546.99 58.2696 553.72 53.5396C560.45 48.8096 568.26 45.5396 572.72 38.7696C575.08 35.1896 576.22 30.9696 578.18 27.1596C584.45 14.9696 598.55 8.36956 612.18 7.54956C625.81 6.72956 639.32 10.7896 652.3 15.1896C665.28 19.5896 678.36 24.4296 692.06 25.3396C698.16 25.7196 704.5 25.3396 710.16 27.6496C717.77 30.7396 722.76 38.1296 726.16 45.6496C729.97 54.1296 732.34 63.3896 731.94 72.6496C731.1 92.4196 718.04 111.82 723.78 130.76C725.3 135.81 728.15 140.99 726.63 146.04C724.41 153.41 714.9 155.09 707.21 155.44C705.21 151.05 706.28 145.97 706.32 141.15C706.36 136.33 704.58 130.64 699.94 129.34C690.66 126.75 684.26 144.05 675.14 140.93C668.19 138.54 669.99 127.93 665.95 121.8C662.76 116.94 656.36 115.58 651.4 112.54C640.83 106.05 641.15 95.6696 636.24 85.8496C631.06 75.5096 620.19 78.5496 610.75 84.6296Z" fill="#99607E"/>
<path d="M464.059 465.16L456.429 467.82C456.429 467.82 459.429 512.94 449.429 525.88C439.429 538.82 482.269 570.99 482.269 570.99C482.269 570.99 540.989 570.66 542.649 565.99C544.309 561.32 539.649 482.39 539.649 482.39C539.649 482.39 508.129 470.11 510.779 450.54C510.779 450.54 501.159 496.65 486.899 494.66C472.639 492.67 456.449 480.76 464.059 465.16Z" fill="#E8F5FF"/>
<path opacity="0.1" d="M489.511 508.62C500.628 508.62 509.641 500.377 509.641 490.21C509.641 480.042 500.628 471.8 489.511 471.8C478.393 471.8 469.381 480.042 469.381 490.21C469.381 500.377 478.393 508.62 489.511 508.62Z" fill="black"/>
<path d="M511.521 466.49C511.521 466.49 507.521 344.41 472.701 371.61C437.881 398.81 437.54 431.34 444.17 440.95C450.8 450.56 472.061 498.67 472.061 498.67C475.386 500.598 479.121 501.71 482.959 501.915C486.797 502.121 490.629 501.414 494.142 499.853C497.654 498.292 500.747 495.921 503.166 492.934C505.585 489.948 507.263 486.43 508.061 482.67L511.521 466.49Z" fill="#FFC1C7"/>
<path opacity="0.1" d="M728.73 157.26C728.567 156.724 728.255 156.245 727.83 155.88C726.11 154.31 722.41 153.76 716.83 154.24L717.06 156.88C724.5 156.24 725.97 157.72 726.16 157.97V158.22L726.39 158.55C727.317 159.797 727.975 161.224 728.319 162.739C728.663 164.254 728.687 165.825 728.39 167.35C726.76 175.5 716.75 181.99 716.65 182.06L716.41 182.2L716.26 182.43C711.94 188.84 687.51 206.93 681.12 211.61L680.56 210.97C677.7 213.45 652.56 235.46 651.2 243.89C650.32 249.18 644.36 251.23 642.2 251.8C639.92 250.07 632.52 244.18 628.67 237.58C625.06 231.37 639.59 219.25 640.87 214.52L638.87 212.47C638.66 213.23 620 230.67 625.19 239.58C629.35 246.73 636.95 252.85 639.61 254.87C638.76 262.59 633.47 307.92 625.34 318.66C615.24 332.01 606.75 399.29 607.69 422.78C608.52 443.65 603.07 483.07 584.87 500C581.719 503.06 577.918 505.368 573.75 506.753C569.582 508.139 565.155 508.565 560.8 508H560.58H560.36C560.1 508 533.7 510.7 511.52 492C493.37 476.73 483.09 451.81 480.95 417.91H480.51L480.33 408.04C485.251 407.272 489.683 404.627 492.694 400.659C495.706 396.692 497.062 391.712 496.479 386.766C495.895 381.819 493.418 377.292 489.566 374.134C485.714 370.976 480.788 369.434 475.824 369.832C470.859 370.23 466.241 372.537 462.942 376.267C459.642 379.998 457.917 384.863 458.129 389.839C458.341 394.815 460.473 399.516 464.078 402.953C467.683 406.39 472.479 408.296 477.46 408.27H477.68L477.86 418.08L476.98 418.14C479.18 453.14 489.98 479.03 508.98 495.02C523.421 506.987 541.868 513.024 560.59 511.91C561.918 512.055 563.254 512.129 564.59 512.13C573.171 512.174 581.428 508.854 587.59 502.88C606.76 485.03 612.59 444.16 611.68 422.58C610.68 397.69 619.59 332.83 628.53 321.02C637.29 309.43 642.6 264.27 643.53 255.52C646.7 254.63 653.87 251.82 655.09 244.52C655.97 239.24 672.76 222.97 683.09 213.96L682.78 213.6C688.34 209.54 705.63 196.74 714.2 188.52C716.86 185.97 719.5 183.42 722.26 180.99C725.58 178.05 729.8 173.38 730.91 167.86C731.288 166.038 731.29 164.158 730.915 162.335C730.54 160.512 729.797 158.785 728.73 157.26V157.26Z" fill="black"/>
<path d="M639.27 254.24C638.85 253.95 628.89 246.82 623.9 238.24C618.72 229.33 637.38 211.9 637.58 211.14L639.58 213.19C638.31 217.91 623.78 230.04 627.39 236.24C631.94 244.07 641.52 250.92 641.62 250.99L639.27 254.24Z" fill="#353146"/>
<path d="M679.82 213.55L678.26 211.4C678.58 211.17 709.99 188.45 714.94 181.1L715.1 180.88L715.33 180.73C715.43 180.66 725.44 174.18 727.07 166.02C727.37 164.497 727.348 162.927 727.003 161.413C726.659 159.898 726 158.474 725.07 157.23L724.84 156.89V156.65C724.64 156.39 723.17 154.92 715.73 155.56L715.5 152.91C721.09 152.43 724.78 152.98 726.5 154.55C726.928 154.919 727.243 155.4 727.41 155.94C728.491 157.461 729.249 159.186 729.638 161.011C730.027 162.836 730.038 164.721 729.67 166.55C728.56 172.08 724.35 176.75 721.02 179.68C718.27 182.11 715.62 184.68 712.97 187.21C702.92 196.84 680.92 212.76 679.82 213.55Z" fill="#E8F5FF"/>
<path d="M479.04 404.559L476.391 404.607L476.686 420.715L479.335 420.666L479.04 404.559Z" fill="#E8F5FF"/>
<path d="M476.17 407C486.857 407 495.52 398.337 495.52 387.65C495.52 376.963 486.857 368.3 476.17 368.3C465.484 368.3 456.82 376.963 456.82 387.65C456.82 398.337 465.484 407 476.17 407Z" fill="#37761D"/>
<path d="M476.17 403.72C485.045 403.72 492.24 396.525 492.24 387.65C492.24 378.775 485.045 371.58 476.17 371.58C467.294 371.58 460.1 378.775 460.1 387.65C460.1 396.525 467.294 403.72 476.17 403.72Z" fill="#E8F5FF"/>
<path d="M563.331 510.84C561.995 510.842 560.659 510.772 559.331 510.63C540.61 511.733 522.167 505.697 507.721 493.74C488.721 477.74 477.941 451.88 475.721 416.85L479.721 416.6C481.861 450.5 492.141 475.43 510.301 490.69C532.481 509.34 558.871 506.69 559.131 506.69H559.351H559.571C563.928 507.252 568.355 506.825 572.524 505.44C576.693 504.055 580.496 501.748 583.651 498.69C601.841 481.76 607.291 442.34 606.461 421.47C605.461 397.96 613.951 330.68 624.061 317.34C632.911 305.65 638.401 252.96 638.461 252.43L638.611 250.93L640.091 250.67C640.181 250.67 648.821 249.03 649.901 242.57C651.301 234.15 676.401 212.14 679.251 209.65L681.861 212.65C671.491 221.65 654.701 237.93 653.861 243.22C652.641 250.54 645.471 253.34 642.311 254.22C641.311 262.98 636.041 308.13 627.311 319.72C618.371 331.53 609.461 396.39 610.461 421.28C611.321 442.86 605.551 483.74 586.381 501.58C580.208 507.569 571.931 510.894 563.331 510.84Z" fill="#353146"/>
<g opacity="0.1">
<path opacity="0.1" d="M726.061 102.47C727.701 96.4099 729.681 90.3099 731.061 84.1699C729.411 90.3399 727.421 96.4099 726.061 102.47Z" fill="black"/>
<path opacity="0.1" d="M709.33 150.09C707.33 145.7 708.4 140.62 708.44 135.8C708.48 130.98 706.7 125.34 702.06 123.99C692.78 121.4 686.38 138.71 677.26 135.58C670.26 133.19 672.11 122.58 668.07 116.45C664.88 111.59 658.49 110.23 653.53 107.19C642.95 100.7 643.27 90.3198 638.37 80.4998C633.22 70.1998 622.37 73.2398 612.93 79.3198C605.76 83.9398 599.59 90.1298 591.93 93.8198C585.3 97.0098 577.85 98.1698 570.5 98.3398C561.55 98.5498 551.81 96.9598 545.66 90.4598C540.92 85.4598 539.21 78.1298 540.19 71.2598C540.02 71.7298 539.87 72.1998 539.72 72.6698C537.32 80.5398 538.72 89.7898 544.33 95.7698C550.48 102.27 560.22 103.85 569.17 103.65C576.53 103.48 583.97 102.32 590.61 99.1298C598.29 95.4298 604.46 89.2498 611.61 84.6298C621.05 78.5498 631.91 75.5098 637.05 85.8098C641.95 95.6298 641.64 106.01 652.21 112.5C657.21 115.5 663.56 116.9 666.76 121.76C670.76 127.91 668.99 138.5 675.95 140.89C685.06 144.01 691.46 126.71 700.74 129.3C705.38 130.6 707.17 136.3 707.12 141.11C707.07 145.92 706.03 151.01 708.01 155.4C715.7 155.05 725.21 153.4 727.44 146C727.747 144.938 727.889 143.835 727.86 142.73C724.61 148.34 716.25 149.78 709.33 150.09Z" fill="black"/>
</g>
<path opacity="0.1" d="M890.059 396.49L901.669 408.77C901.669 408.77 910.959 476.44 915.599 482.77C920.239 489.1 931.199 514.28 920.909 533.19C920.909 533.19 917.589 543.48 919.579 547.79C921.569 552.1 904.659 573.67 904.659 573.67C904.659 573.67 882.429 593.57 877.779 596.56C873.129 599.55 848.589 623.43 840.299 623.76C832.009 624.09 829.299 634.38 829.299 634.38L782.519 636.04C782.519 636.04 756.679 634.69 751.059 638.34C751.059 638.34 754.059 598.86 725.189 572.98L762.009 559.71C762.009 559.71 775.949 553.71 780.259 547.44C782.971 543.596 786.817 540.697 791.259 539.15C791.259 539.15 801.539 531.85 801.869 527.87C802.199 523.89 814.439 519.01 814.439 519.01L807.509 459.86L811.159 361.66C811.159 361.66 822.769 279.38 847.319 284.03C871.869 288.68 890.059 396.49 890.059 396.49Z" fill="black"/>
<path d="M894.059 396.49L905.669 408.77C905.669 408.77 914.959 476.44 919.599 482.77C924.239 489.1 935.199 514.28 924.909 533.19C924.909 533.19 921.599 543.48 923.589 547.79C925.579 552.1 908.659 573.67 908.659 573.67C908.659 573.67 886.429 593.57 881.779 596.56C877.129 599.55 852.589 623.43 844.299 623.76C836.009 624.09 833.299 634.38 833.299 634.38L786.519 636.04C786.519 636.04 760.659 634.69 755.059 638.34C755.059 638.34 758.059 598.86 729.189 572.98L766.009 559.71C766.009 559.71 779.949 553.71 784.259 547.44C786.971 543.596 790.817 540.697 795.259 539.15C795.259 539.15 805.539 531.85 805.869 527.87C806.199 523.89 818.439 519.01 818.439 519.01L811.509 459.86L815.159 361.66C815.159 361.66 826.769 279.38 851.319 284.03C875.869 288.68 894.059 396.49 894.059 396.49Z" fill="#E8F5FF"/>
<path opacity="0.1" d="M850.9 495.69C850.9 495.69 885.07 486.69 894.03 497.69C902.99 508.69 850.9 495.69 850.9 495.69Z" fill="black"/>
<path opacity="0.1" d="M842.939 510.78C854.549 518.91 890.379 519.24 890.379 519.24L842.939 510.78Z" fill="black"/>
<path opacity="0.1" d="M860.52 551.42C861.52 551.75 885.15 576.97 895.07 569.34C904.99 561.71 860.52 551.42 860.52 551.42Z" fill="black"/>
<path opacity="0.1" d="M542.279 339.76C542.279 339.76 549.219 387.54 545.799 407C542.379 426.46 554.859 450.57 554.859 450.57L542.279 339.76Z" fill="black"/>
<path d="M388.64 359.19C380.64 365.46 374.8 380.3 370.57 396.61C363.19 425.06 360.78 458.05 360.78 458.05C360.78 458.05 297.08 443.45 301.72 436.82C304.64 432.65 300.72 401.23 297.45 378.45C295.5 364.99 293.76 354.54 293.76 354.54C293.76 354.54 410.54 341.93 388.64 359.19Z" fill="#FFCCD0"/>
<path opacity="0.1" d="M388.64 357.86C380.64 364.14 374.8 378.97 370.57 395.28C357.878 399.134 344.38 399.481 331.507 396.286C318.634 393.09 306.866 386.471 297.45 377.13C295.5 363.66 293.76 353.21 293.76 353.21C293.76 353.21 410.54 340.61 388.64 357.86Z" fill="black"/>
<path d="M422.88 322.12C422.886 339.513 416.739 356.348 405.527 369.645C394.315 382.942 378.76 391.843 361.615 394.774C344.471 397.705 326.842 394.477 311.85 385.66C296.857 376.843 285.467 363.006 279.695 346.598C273.923 330.191 274.142 312.27 280.312 296.008C286.483 279.747 298.207 266.192 313.411 257.744C328.614 249.295 346.317 246.498 363.384 249.846C380.452 253.195 395.785 262.473 406.67 276.04C417.158 289.108 422.876 305.363 422.88 322.12V322.12Z" fill="#FFCCD0"/>
<path opacity="0.1" d="M480.96 782.68H459.96L458.19 745.59L456.34 707.2C456.34 707.2 461.11 706.49 468.71 705.43L471.78 705.02H472.03C473.69 712.81 475.33 720.81 476.91 728.8C479.54 742.984 480.908 757.374 481 771.8C481 772.8 481 773.8 481 774.74C481.06 777.41 481 780.08 480.96 782.68Z" fill="black"/>
<path d="M476.93 782.68H213.57C214.71 780.09 215.47 778.52 215.47 778.52C215.47 778.52 236.54 686.34 247.25 647.34C247.254 647.306 247.254 647.273 247.25 647.24C248.588 641.942 250.204 636.718 252.09 631.59V631.59C252.212 631.241 252.37 630.906 252.56 630.59C257.86 621.97 264.5 612.68 255.21 599.41C245.92 586.14 249.21 527.75 249.21 527.75C249.21 527.75 260.49 477.98 272.43 451.44C274.242 447.329 276.814 443.597 280.01 440.44C281.049 439.423 282.159 438.481 283.33 437.62V437.62C284.221 436.95 285.149 436.333 286.11 435.77L286.3 435.65C291.316 432.806 296.886 431.077 302.63 430.58C306.711 430.153 310.83 430.267 314.88 430.92C334.24 433.76 349.74 438.51 362.06 443.92C395.45 458.59 405.56 478.25 405.76 478.66L405.84 478.83C407.18 481.96 426.78 527.72 433.84 549.07C435.67 554.63 436.67 558.54 436.27 559.61C434.27 564.91 451.53 631.26 451.53 631.26C451.53 631.26 459.53 663.26 467.53 700.77C467.88 702.33 468.21 703.89 468.53 705.47C469.96 712.28 471.38 719.22 472.75 726.15C475.405 740.432 476.774 754.923 476.84 769.45C476.987 773.976 477.017 778.386 476.93 782.68Z" fill="#FF748E"/>
<path opacity="0.1" d="M301.059 407.76C301.059 407.76 282.889 400.76 283.109 411.38C283.329 422 287.539 427.08 286.209 428.63C284.879 430.18 286.869 439.47 286.869 439.47C286.869 439.47 311.419 439.47 322.699 444.55C333.979 449.63 375.559 459.81 380.869 462.91C386.179 466.01 405.869 479.91 405.869 479.91L407.639 453.59C407.639 453.59 387.289 436.78 353.899 428.16C320.509 419.54 301.059 407.76 301.059 407.76Z" fill="black"/>
<path d="M301.059 406.43C301.059 406.43 282.889 399.43 283.109 410.05C283.329 420.67 287.539 425.75 286.209 427.3C284.879 428.85 286.869 438.139 286.869 438.139C286.869 438.139 311.419 438.14 322.699 443.23C333.979 448.32 375.559 458.489 380.869 461.579C386.179 464.669 405.869 478.579 405.869 478.579L407.659 452.34C407.659 452.34 387.309 435.53 353.919 426.91C320.529 418.29 301.059 406.43 301.059 406.43Z" fill="#FF748E"/>
<path opacity="0.1" d="M355.91 469.77C355.91 469.77 390.63 507.36 388.86 517.77C387.09 528.18 355.91 469.77 355.91 469.77Z" fill="black"/>
<path opacity="0.1" d="M299.509 605.56C299.509 605.56 274.059 629.01 266.559 630.34C259.059 631.67 272.309 636.09 280.929 632.56C289.549 629.03 307.929 619.74 307.929 619.74L299.509 605.56Z" fill="black"/>
<path d="M487.269 782.68H427.919C419.619 775.48 411.769 768.81 406.769 764.8C398.769 758.38 392.999 748.93 389.319 741.33C388.489 739.6 387.769 737.98 387.159 736.51C386.067 733.978 385.106 731.391 384.279 728.76L428.229 702.66C430.658 704.726 432.94 706.958 435.059 709.34L435.589 709.95C438.029 712.83 440.179 716.1 440.369 718.78C440.589 721.9 449.269 733.97 458.139 745.56C467.139 757.35 476.359 768.62 476.969 769.38C476.969 769.38 478.489 771.45 480.969 774.63C482.719 776.93 484.879 779.69 487.269 782.68Z" fill="#FFCCD0"/>
<path opacity="0.1" d="M406.67 276.04C404.56 280.8 402.67 285.74 402.39 291.04C401.6 306.34 402.88 340.55 385.94 348.23C377.55 352.01 368.57 343.71 359.37 343.51C352.75 343.37 346.68 347.57 342.64 352.82C338.6 358.07 336.09 364.3 333.16 370.24C330.493 375.632 327.421 380.813 323.97 385.74C322.939 387.248 321.802 388.682 320.57 390.03C310.241 385.672 301.043 379.013 293.676 370.561C286.31 362.109 280.971 352.087 278.065 341.259C275.158 330.431 274.762 319.082 276.906 308.078C279.051 297.073 283.678 286.704 290.437 277.759C297.196 268.814 305.907 261.53 315.908 256.461C325.908 251.393 336.933 248.674 348.143 248.513C359.354 248.351 370.453 250.75 380.595 255.527C390.738 260.305 399.656 267.334 406.67 276.08V276.04Z" fill="black"/>
<path d="M401.06 288.34C400.26 303.64 401.55 337.85 384.6 345.52C376.21 349.3 367.23 341.01 358.03 340.81C351.41 340.66 345.35 344.87 341.3 350.11C337.25 355.35 334.76 361.59 331.82 367.54C329.152 372.931 326.08 378.112 322.63 383.04C320.57 385.96 318.29 388.89 315.12 390.53C309.6 393.41 302.91 391.79 296.99 389.94C289.31 387.52 281.744 384.793 274.29 381.76C274.461 380.635 274.548 379.498 274.55 378.36C274.33 378.78 274.09 379.17 273.85 379.59L273.38 380.41C272.53 381.91 271.7 383.41 270.94 384.95C270.65 385.54 270.37 386.15 270.12 386.76C269.115 389.03 268.483 391.448 268.25 393.92C267.74 400.59 271.03 406.92 273.95 412.92C285.18 436.13 292.12 463.27 283.67 487.62C280.01 498.21 273.67 507.62 269.04 517.85C260.947 535.969 258.564 556.123 262.21 575.63C264.52 587.75 269.15 599.75 268.01 612.04C266.01 633.19 247.77 648.93 229.5 659.75C219.63 665.57 207.55 670.75 197.07 666.15C203.75 658.35 205.47 647.56 206.91 637.38C210.85 609.613 214.8 581.833 218.76 554.04C220.34 542.98 221.917 531.92 223.49 520.86C226.43 500.08 229.41 479.07 227.57 458.16C226.23 442.75 222.45 426.39 229.13 412.44C232.66 405.05 238.95 398.93 240.91 390.97C242.52 384.5 241.02 377.62 242.08 371.03C242.661 368.032 243.643 365.125 245 362.39C246.729 358.678 248.986 355.236 251.7 352.17C249.02 351.39 246.52 350.32 245 348.08C249.3 345.28 249.95 338.97 248 334.23C246.05 329.49 242.15 325.88 238.64 322.14C235.13 318.4 231.75 314.04 231.31 308.94C230.46 299.23 240.16 291.71 241.87 282.13C243.6 272.38 236.76 262.9 237.31 253.03C237.95 241.1 248.91 232.43 259.73 227.4C276.058 219.841 294.095 216.736 312.01 218.4C326.59 219.78 340.7 224.29 355.24 226.04C364.01 227.04 372.9 227.14 381.61 228.68C390.32 230.22 399.05 233.47 405.18 239.86C421.34 256.71 401.98 270.58 401.06 288.34Z" fill="#FFE0D0"/>
<path opacity="0.1" d="M387.54 741.34C382.44 739.13 373.16 740.45 357.23 735.6C341.3 730.75 338.23 708.83 338.23 708.83V708.76C338.04 708.26 336.56 705 326.54 693.58C315.47 680.97 291.54 617.28 291.54 617.28C291.54 617.28 270.32 594.49 270.99 586.09C271.66 577.69 267.22 555.34 267.66 530.34C268.1 505.34 315.43 488.76 315.43 488.76C406.56 472.61 385.1 577.67 382.67 585.63C380.24 593.59 392.85 615.09 392.85 615.09C391.07 624.45 400.15 638.94 400.15 638.94C400.15 638.94 402.35 651.76 402.8 656.63C402.825 656.855 402.875 657.077 402.95 657.29C404.41 661.88 416.31 666.04 421.15 668.57C426.24 671.23 442.61 694.45 442.61 694.45C446.14 711.5 392.62 743.58 387.54 741.34Z" fill="black"/>
<path d="M390.19 737.34C385.1 735.12 375.81 736.45 359.89 731.59C343.97 726.73 340.89 704.83 340.89 704.83V704.76C340.71 704.25 339.22 701 329.2 689.58C318.13 676.97 294.2 613.27 294.2 613.27C294.2 613.27 272.98 590.49 273.64 582.09C274.3 573.69 269.88 551.34 270.32 526.36C270.76 501.38 318.06 484.81 318.06 484.81C409.19 468.66 387.73 573.72 385.3 581.68C382.87 589.64 395.48 611.14 395.48 611.14C393.7 620.5 402.78 634.99 402.78 634.99C402.78 634.99 404.98 647.81 405.44 652.68C405.457 652.905 405.504 653.127 405.58 653.34C407.04 657.93 418.94 662.09 423.79 664.62C428.87 667.27 445.25 690.5 445.25 690.5C448.8 707.52 395.28 739.6 390.19 737.34Z" fill="#FF748E"/>
<path opacity="0.1" d="M319.859 539.66C319.859 539.66 359.669 581.66 370.059 581.66C380.449 581.66 319.859 539.66 319.859 539.66Z" fill="black"/>
<path d="M390.191 737.34C385.101 735.12 375.811 736.45 359.891 731.59C343.971 726.73 340.891 704.83 340.891 704.83V704.76C351.441 697.76 378.161 677.99 388.691 670.76C396.101 665.69 402.151 658.24 405.691 653.3C407.151 657.89 419.051 662.05 423.901 664.58C428.981 667.23 445.361 690.46 445.361 690.46C448.801 707.52 395.281 739.6 390.191 737.34Z" fill="#FF748E"/>
<g opacity="0.1">
<path opacity="0.1" d="M245.061 348.19C245.111 348.27 245.181 348.34 245.241 348.42C245.541 348.04 245.851 347.66 246.171 347.3C245.83 347.631 245.458 347.929 245.061 348.19V348.19Z" fill="black"/>
<path opacity="0.1" d="M268.26 394.03C268.68 388.48 271.65 383.59 274.43 378.71C272.61 378.01 270.79 377.3 268.99 376.56C269.162 375.438 269.249 374.305 269.25 373.17C266.44 378.17 263.38 383.09 262.95 388.72C262.44 395.4 265.73 401.72 268.65 407.72C279.89 430.92 286.82 458.06 278.37 482.42C274.7 493 268.37 502.42 263.74 512.65C255.65 530.766 253.271 550.918 256.92 570.42C259.21 582.55 263.85 594.54 262.71 606.83C260.71 627.98 242.48 643.72 224.2 654.53C216.73 658.95 208 663 199.65 662.71C198.877 663.954 198.015 665.141 197.07 666.26C207.56 670.89 219.63 665.68 229.5 659.84C247.79 649.04 266.06 633.34 268.06 612.15C269.2 599.86 264.56 587.87 262.26 575.74C258.61 556.24 260.981 536.09 269.06 517.97C273.66 507.75 280.06 498.32 283.69 487.74C292.14 463.38 285.2 436.24 273.97 413.04C271.06 407 267.75 400.71 268.26 394.03Z" fill="black"/>
<path opacity="0.1" d="M405.161 239.98C404.177 238.971 403.121 238.035 402.001 237.18C414.121 252.9 396.621 266.26 395.751 283.18C394.971 298.48 396.251 332.7 379.301 340.36C370.921 344.15 361.931 335.85 352.741 335.65C346.111 335.51 340.051 339.72 336.001 344.96C331.951 350.2 329.461 356.44 326.531 362.38C323.858 367.77 320.783 372.951 317.331 377.88C315.331 380.81 312.991 383.73 309.811 385.38C304.311 388.25 297.621 386.64 291.691 384.78C285.924 382.966 280.211 380.966 274.551 378.78C274.539 379.821 274.452 380.861 274.291 381.89C281.751 384.93 289.321 387.656 297.001 390.07C302.921 391.93 309.611 393.54 315.121 390.67C318.291 389.02 320.591 386.09 322.641 383.16C326.095 378.238 329.167 373.06 331.831 367.67C334.771 361.73 337.251 355.48 341.311 350.24C345.371 345 351.421 340.8 358.041 340.94C367.241 341.14 376.231 349.44 384.611 345.65C401.561 337.99 400.271 303.77 401.061 288.47C401.981 270.68 421.341 256.82 405.161 239.98Z" fill="black"/>
</g>
<path opacity="0.1" d="M273.39 380.42C272.54 381.92 271.71 383.42 270.95 384.96C270.66 385.55 270.38 386.16 270.13 386.77C264.89 381.49 252.13 368.94 245.01 365.05C246.741 361.339 248.997 357.897 251.71 354.83C251.71 354.83 268.68 363.8 273.39 380.42Z" fill="black"/>
<path d="M273.86 379.6C269.93 361.81 251.71 352.18 251.71 352.18C248.995 355.245 246.738 358.688 245.01 362.4C252.52 366.51 266.36 380.29 270.95 384.96L273.86 379.6Z" fill="#FF748E"/>
</g>
<defs>
<linearGradient id="paint0_linear" x1="730.03" y1="95.4103" x2="730.03" y2="77.0303" gradientUnits="userSpaceOnUse">
<stop stop-color="#808080" stop-opacity="0.25"/>
<stop offset="0.54" stop-color="#808080" stop-opacity="0.12"/>
<stop offset="1" stop-color="#808080" stop-opacity="0.1"/>
</linearGradient>
<linearGradient id="paint1_linear" x1="458772" y1="658504" x2="458772" y2="45912.3" gradientUnits="userSpaceOnUse">
<stop stop-color="#808080" stop-opacity="0.25"/>
<stop offset="0.54" stop-color="#808080" stop-opacity="0.12"/>
<stop offset="1" stop-color="#808080" stop-opacity="0.1"/>
</linearGradient>
<clipPath id="clip0">
<rect width="1086.13" height="782.67" fill="white"/>
</clipPath>
</defs>
</svg>
